<?xml version="1.0" standalone="no"?>
<!DOCTYPE svg PUBLIC "-//W3C//DTD SVG 20010904//EN"
 "http://www.w3.org/TR/2001/REC-SVG-20010904/DTD/svg10.dtd">
<svg version="1.0" xmlns="http://www.w3.org/2000/svg"
 width="1000.000000pt" height="324.000000pt" viewBox="0 0 1000.000000 324.000000"
 preserveAspectRatio="xMidYMid meet">

<g transform="translate(0.000000,324.000000) scale(0.100000,-0.100000)"
fill="#000000" stroke="none">
<path d="M2033 3009 c-67 -26 -137 -94 -171 -167 l-27 -57 0 -580 0 -580 27
-57 c31 -66 91 -128 156 -160 39 -19 63 -23 137 -23 78 0 97 4 141 27 28 15
72 50 97 78 80 89 78 68 75 731 l-3 584 -23 47 c-30 60 -90 120 -150 150 -66
32 -187 36 -259 7z"/>
<path d="M4012 2641 c-72 -213 -132 -391 -132 -395 0 -3 42 -6 94 -6 l94 0 18
45 17 46 125 -3 125 -3 15 -42 14 -43 94 0 c52 0 94 3 94 7 0 6 -133 420 -216
676 l-36 107 -87 0 -86 0 -133 -389z m247 -23 c13 -40 26 -79 28 -85 4 -10
-11 -13 -56 -13 -34 0 -61 3 -61 7 0 18 52 163 59 163 4 0 18 -33 30 -72z"/>
<path d="M4853 3016 c-291 -95 -373 -469 -148 -675 80 -72 145 -95 270 -96 93
0 105 2 166 32 35 18 75 43 87 56 l22 23 -64 63 -64 63 -28 -21 c-48 -34 -116
-47 -171 -33 -197 52 -221 318 -38 403 69 32 165 19 217 -28 18 -16 22 -13 83
47 l65 64 -22 23 c-12 13 -51 38 -87 56 -55 27 -76 32 -155 34 -57 2 -107 -2
-133 -11z"/>
<path d="M5535 3017 c-67 -23 -118 -53 -164 -99 -115 -115 -149 -275 -91 -432
30 -78 113 -166 197 -208 125 -61 293 -46 407 38 l49 36 -66 65 -65 66 -31
-22 c-45 -32 -126 -46 -179 -32 -151 42 -206 245 -96 355 78 78 211 87 286 19
18 -16 22 -13 83 47 l65 64 -22 23 c-12 13 -51 38 -87 56 -55 27 -76 32 -155
34 -56 2 -106 -2 -131 -10z"/>
<path d="M5980 2635 l0 -395 95 0 95 0 0 395 0 395 -95 0 -95 0 0 -395z"/>
<path d="M7070 2635 l0 -395 90 0 90 0 2 226 3 226 125 -226 125 -225 103 -1
102 0 0 395 0 395 -95 0 -95 0 -2 -222 -3 -223 -124 223 -124 222 -99 0 -98 0
0 -395z"/>
<path d="M7892 2642 c-73 -213 -132 -391 -132 -395 0 -4 42 -7 94 -7 l94 0 15
43 14 42 128 0 128 0 15 -42 14 -43 94 0 c52 0 94 3 94 6 0 6 -127 401 -221
692 l-31 92 -87 0 -87 0 -132 -388z m248 -27 c13 -38 25 -76 28 -82 3 -10 -12
-13 -57 -13 -34 0 -61 3 -61 7 0 21 55 172 61 165 4 -4 17 -38 29 -77z"/>
<path d="M8510 2635 l0 -395 90 0 90 0 0 100 0 100 30 0 c26 0 35 -10 90 -100
l62 -100 109 0 108 0 -73 118 c-109 175 -103 156 -61 205 98 114 76 290 -48
389 -71 55 -154 78 -288 78 l-109 0 0 -395z m254 191 c62 -26 85 -94 50 -145
-16 -22 -86 -60 -111 -61 -10 0 -13 29 -13 110 0 123 2 126 74 96z"/>
<path d="M6515 3007 c-154 -52 -249 -159 -276 -315 -29 -161 61 -327 219 -404
60 -30 75 -33 157 -33 85 0 96 2 167 38 88 43 146 102 187 187 23 48 26 68 26
155 0 88 -3 107 -27 157 -37 79 -108 152 -185 190 -54 26 -79 32 -146 35 -50
2 -98 -2 -122 -10z m183 -182 c79 -34 122 -101 122 -193 0 -51 -5 -67 -32
-108 -93 -137 -289 -120 -359 31 -46 98 4 226 106 271 41 18 118 17 163 -1z"/>
<path d="M1595 2564 c-360 -183 -610 -529 -672 -929 -18 -119 -13 -321 11
-433 108 -501 508 -891 1005 -977 109 -19 315 -19 427 0 512 90 924 502 1015
1015 19 110 17 346 -5 450 -83 390 -336 717 -686 884 l-75 36 -3 -331 -2 -330
43 -49 c57 -66 104 -145 135 -228 33 -88 42 -272 18 -374 -96 -411 -554 -634
-933 -453 -177 83 -299 223 -360 410 -32 101 -36 262 -9 365 24 89 87 205 146
272 l50 56 0 331 c0 182 -3 331 -7 331 -5 0 -48 -21 -98 -46z"/>
<path d="M4211 1728 c-203 -32 -341 -208 -329 -419 10 -164 119 -301 280 -350
79 -24 171 -23 247 4 50 18 141 77 141 92 0 12 -112 125 -124 125 -4 0 -19 -9
-32 -19 -13 -10 -46 -24 -74 -31 -137 -33 -278 95 -256 233 18 114 103 187
213 187 49 0 124 -28 138 -50 5 -8 28 9 71 51 35 35 64 67 64 71 0 14 -82 67
-134 86 -65 24 -136 31 -205 20z"/>
<path d="M5410 1340 l0 -400 90 0 90 0 0 400 0 400 -90 0 -90 0 0 -400z"/>
<path d="M5750 1340 l0 -400 235 0 235 0 0 90 0 90 -145 0 -145 0 0 310 0 310
-90 0 -90 0 0 -400z"/>
<path d="M4670 1335 l0 -395 90 0 90 0 0 150 0 150 115 0 115 0 0 -150 0 -150
90 0 90 0 0 395 0 395 -90 0 -90 0 0 -155 0 -155 -115 0 -115 0 0 155 0 155
-90 0 -90 0 0 -395z"/>
<path d="M6360 1335 l0 -395 255 0 255 0 0 90 0 90 -160 0 -160 0 0 65 0 65
130 0 130 0 0 90 0 90 -130 0 -130 0 0 60 0 60 160 0 160 0 0 90 0 90 -255 0
-255 0 0 -395z"/>
<path d="M3877 433 c-11 -11 -8 -223 3 -223 6 0 10 16 10 35 0 35 0 35 44 35
40 0 48 -4 72 -35 14 -19 31 -35 36 -35 6 0 -2 16 -17 36 l-27 35 26 24 c44
41 30 102 -28 125 -30 11 -109 14 -119 3z m131 -29 c26 -18 29 -60 5 -86 -12
-13 -30 -18 -70 -18 l-53 0 0 60 0 60 48 0 c27 0 57 -7 70 -16z"/>
<path d="M4220 325 l0 -115 83 2 82 2 -72 3 -73 4 0 49 0 49 63 4 62 3 -62 2
-63 2 0 45 0 45 65 0 c37 0 65 4 65 10 0 6 -32 10 -75 10 l-75 0 0 -115z"/>
<path d="M4550 325 l0 -115 59 0 c33 0 71 4 85 10 39 15 68 67 62 113 -8 68
-64 107 -156 107 l-50 0 0 -115z m166 61 c32 -37 32 -94 0 -129 -25 -27 -73
-41 -122 -35 l-29 3 -3 99 -3 98 67 -4 c58 -4 70 -8 90 -32z"/>
<path d="M5370 433 c-31 -12 -70 -58 -76 -90 -8 -41 10 -87 44 -113 30 -24
109 -27 138 -5 23 18 13 19 -37 4 -101 -31 -173 88 -99 163 26 26 36 29 73 26
23 -3 51 -8 62 -13 19 -7 19 -7 4 9 -17 18 -83 30 -109 19z"/>
<path d="M5692 423 c-39 -19 -62 -59 -62 -109 0 -28 8 -44 34 -70 30 -30 41
-34 84 -34 61 0 97 25 113 79 15 49 -7 103 -53 131 -40 24 -72 25 -116 3z
m109 -13 c24 -13 49 -61 49 -94 0 -35 -45 -84 -84 -92 -38 -7 -89 15 -106 45
-5 11 -10 36 -10 56 0 71 86 119 151 85z"/>
<path d="M6038 434 c-5 -4 -8 -56 -8 -116 l0 -108 78 2 77 2 -67 3 -67 4 -3
110 c-2 61 -6 107 -10 103z"/>
<path d="M6356 338 c-61 -131 -60 -128 -48 -128 5 0 15 13 22 30 12 29 14 30
80 30 66 0 68 -1 80 -30 7 -16 17 -30 22 -30 12 0 15 -8 -46 123 -27 59 -52
107 -56 107 -4 0 -28 -46 -54 -102z m79 22 c14 -27 25 -54 25 -60 0 -6 -24
-10 -54 -10 l-55 0 27 60 c15 32 28 59 29 60 2 0 14 -22 28 -50z"/>
<path d="M6677 433 c-4 -3 -7 -55 -7 -115 l0 -108 73 0 c82 0 117 16 117 56 0
13 -8 32 -18 42 -16 16 -16 19 -2 44 17 32 8 55 -31 75 -25 13 -121 18 -132 6z
m134 -23 c10 -6 19 -19 19 -30 0 -34 -28 -50 -86 -50 l-54 0 0 45 0 45 51 0
c28 0 59 -5 70 -10z m-2 -101 c25 -9 31 -16 31 -40 0 -36 -27 -49 -101 -49
l-49 0 0 50 0 50 44 0 c23 0 57 -5 75 -11z"/>
<path d="M7074 426 c-42 -19 -64 -52 -64 -99 0 -75 42 -117 116 -117 72 0 114
43 114 118 0 47 -22 80 -66 98 -41 17 -60 17 -100 0z m100 -17 c33 -15 59 -71
51 -108 -10 -46 -50 -76 -100 -76 -50 0 -79 21 -95 71 -27 82 61 151 144 113z"/>
<path d="M7410 326 c0 -71 4 -116 10 -116 6 0 10 16 10 35 0 35 0 35 45 35 40
0 47 -4 67 -35 13 -19 26 -35 31 -35 13 0 7 14 -17 45 l-23 29 23 19 c18 14
24 28 24 56 0 54 -24 72 -105 78 l-65 6 0 -117z m140 74 c46 -46 9 -100 -70
-100 l-50 0 0 60 0 60 50 0 c37 0 55 -5 70 -20z"/>
<path d="M7785 358 c-60 -132 -66 -148 -56 -148 5 0 14 13 21 30 12 29 14 30
80 30 66 0 68 -1 80 -30 12 -28 38 -45 27 -17 -21 54 -101 217 -107 217 -4 0
-24 -37 -45 -82z m52 -66 c-27 -2 -52 0 -55 3 -3 3 6 31 22 62 l27 56 28 -59
28 -59 -50 -3z"/>
<path d="M8050 430 c0 -5 18 -10 40 -10 l39 0 4 -107 3 -108 2 108 2 107 46 0
c27 0 43 4 39 10 -3 6 -44 10 -91 10 -49 0 -84 -4 -84 -10z"/>
<path d="M8384 325 c0 -66 1 -92 3 -57 2 34 2 88 0 120 -2 31 -3 3 -3 -63z"/>
<path d="M8550 431 c0 -26 93 -222 104 -218 10 3 104 201 105 222 2 24 -29
-27 -64 -107 -21 -48 -41 -86 -45 -83 -3 2 -24 44 -45 92 -40 91 -55 117 -55
94z"/>
<path d="M8926 345 c-25 -52 -48 -104 -51 -115 -10 -32 9 -23 22 10 11 29 13
30 80 30 67 0 69 -1 80 -30 6 -17 16 -30 22 -30 6 0 -6 35 -25 78 -20 42 -42
91 -50 109 -7 17 -18 34 -24 38 -5 3 -30 -37 -54 -90z m79 8 c14 -31 23 -58
21 -60 -2 -2 -26 -3 -54 -1 l-49 3 25 58 c13 31 26 57 28 57 3 0 16 -25 29
-57z"/>
</g>
</svg>
