<?xml version="1.0" standalone="no"?>
<!DOCTYPE svg PUBLIC "-//W3C//DTD SVG 20010904//EN"
 "http://www.w3.org/TR/2001/REC-SVG-20010904/DTD/svg10.dtd">
<svg version="1.0" xmlns="http://www.w3.org/2000/svg"
 width="1920.000000pt" height="1080.000000pt" viewBox="0 0 1920.000000 1080.000000"
 preserveAspectRatio="xMidYMid meet">

<g transform="translate(0.000000,1080.000000) scale(0.100000,-0.100000)"
fill="#000000" stroke="none">
<path d="M3645 8749 c-161 -23 -288 -92 -409 -220 -79 -84 -118 -142 -175
-263 l-41 -89 0 -1385 0 -1385 54 -111 c90 -183 219 -321 371 -397 108 -53
166 -62 377 -57 l177 4 93 47 c172 86 348 265 388 395 44 142 45 177 44 1592
l-1 1345 -33 65 c-107 213 -290 387 -460 434 -116 32 -266 42 -385 25z"/>
<path d="M2524 7687 c-491 -243 -858 -551 -1161 -973 -59 -83 -187 -292 -231
-379 -137 -273 -247 -618 -288 -910 -23 -161 -27 -645 -6 -820 26 -211 89
-451 179 -680 390 -988 1269 -1702 2293 -1862 167 -26 762 -26 930 0 250 38
515 119 756 230 667 307 1202 849 1504 1527 96 214 180 500 210 710 30 214 30
710 0 935 -13 98 -57 269 -111 434 -235 714 -724 1316 -1364 1679 -50 28 -149
80 -221 116 l-131 64 -6 -352 c-4 -193 -7 -548 -7 -790 l0 -438 58 -67 c165
-188 283 -379 359 -581 80 -211 102 -631 48 -895 -48 -232 -194 -513 -360
-695 -249 -270 -535 -435 -891 -511 -152 -33 -403 -37 -559 -11 -150 26 -277
67 -423 137 -353 170 -602 419 -767 768 -102 218 -134 357 -142 618 -9 276 17
438 101 637 85 200 191 365 337 527 l72 80 -6 772 c-3 429 -9 779 -14 788 -8
14 -29 6 -159 -58z"/>
<path d="M7795 7548 c-12 -31 -242 -708 -411 -1205 -105 -310 -179 -545 -173
-548 5 -4 99 -9 209 -12 l200 -6 23 54 c13 30 32 78 41 107 l18 52 271 -6
c150 -3 277 -7 283 -9 7 -2 26 -47 44 -101 l33 -97 200 6 c110 3 204 10 208
14 5 5 -41 166 -102 358 -112 356 -362 1130 -421 1308 l-32 97 -193 0 c-146 0
-195 -3 -198 -12z m210 -775 c4 -10 31 -90 61 -177 38 -113 51 -163 44 -170
-12 -12 -231 -13 -249 -2 -12 8 11 90 64 231 43 115 52 135 64 135 5 0 12 -8
16 -17z"/>
<path d="M11915 7548 c-3 -7 -4 -407 -3 -888 l3 -875 213 -3 212 -2 0 890 0
890 -210 0 c-159 0 -212 -3 -215 -12z"/>
<path d="M14360 6670 l0 -890 198 0 199 0 6 137 c4 75 7 303 7 507 1 299 3
368 13 355 7 -10 133 -235 281 -502 l268 -485 225 -7 c134 -4 228 -4 234 2 5
5 8 363 7 889 l-3 879 -212 3 -213 2 -1 -202 c-1 -112 -5 -336 -8 -498 l-6
-294 -276 494 -276 495 -221 3 -222 2 0 -890z"/>
<path d="M16490 7528 c-25 -73 -481 -1414 -530 -1561 -34 -102 -49 -162 -43
-168 6 -6 97 -13 204 -16 160 -5 196 -3 205 8 6 8 24 51 39 97 l27 82 290 -2
291 -3 31 -90 31 -90 75 -3 c120 -6 340 8 340 21 0 20 -449 1431 -521 1640
l-41 117 -193 0 -193 0 -12 -32z m276 -921 c30 -89 54 -167 54 -173 0 -29
-246 -27 -257 2 -6 16 57 210 99 303 36 80 31 86 104 -132z"/>
<path d="M17592 6673 l3 -888 198 -3 197 -2 0 225 0 225 57 0 c52 0 59 -3 92
-38 20 -22 83 -115 140 -208 57 -93 111 -177 119 -186 14 -16 39 -18 249 -18
147 0 233 4 233 10 0 5 -34 65 -77 132 -251 403 -274 443 -275 487 -1 18 15
48 50 90 63 78 107 160 127 236 19 75 19 224 0 300 -47 188 -196 359 -383 442
-129 57 -311 83 -580 83 l-152 0 2 -887z m545 436 c82 -30 147 -99 163 -171
25 -110 -25 -187 -169 -260 -89 -46 -118 -49 -128 -10 -13 49 -9 415 5 440 16
28 53 29 129 1z"/>
<path d="M9424 7535 c-136 -29 -286 -119 -406 -242 -330 -339 -337 -885 -16
-1228 112 -120 246 -203 388 -242 53 -14 107 -18 285 -18 208 0 223 1 275 23
131 56 320 184 320 217 0 13 -260 266 -280 273 -4 2 -32 -14 -60 -34 -150
-108 -374 -114 -529 -15 -169 109 -256 323 -210 520 27 118 136 258 239 308
160 78 357 65 492 -33 45 -32 53 -34 77 -24 15 6 83 67 152 136 l124 125 -51
47 c-94 87 -267 173 -384 191 -90 15 -342 12 -416 -4z"/>
<path d="M10962 7539 c-54 -10 -185 -66 -259 -111 -125 -73 -264 -230 -334
-374 -62 -128 -82 -216 -82 -374 -1 -256 65 -427 234 -604 125 -133 254 -214
406 -258 68 -20 100 -23 243 -22 149 1 174 3 253 27 48 15 120 43 160 63 72
37 217 138 217 152 0 4 -64 71 -142 149 l-143 142 -57 -39 c-103 -69 -156 -84
-298 -85 -122 0 -127 1 -194 34 -193 95 -305 335 -255 550 53 230 295 389 540
353 77 -11 163 -47 220 -93 17 -14 34 -19 47 -15 11 4 80 65 154 136 l133 130
-47 43 c-93 87 -274 176 -398 196 -76 13 -336 13 -398 0z"/>
<path d="M13185 7524 c-80 -13 -240 -82 -327 -142 -209 -144 -338 -366 -368
-635 -25 -216 49 -446 201 -627 101 -121 326 -263 457 -289 80 -16 327 -14
395 4 67 17 218 91 301 148 120 81 226 209 291 351 49 106 58 168 53 378 -4
160 -7 190 -28 243 -98 258 -336 478 -595 552 -50 14 -321 26 -380 17z m326
-423 c127 -48 217 -141 261 -270 18 -52 22 -89 23 -176 0 -107 -1 -112 -35
-175 -117 -220 -354 -316 -578 -236 -139 50 -265 204 -293 359 -25 132 32 297
137 403 95 94 183 126 334 120 64 -3 113 -11 151 -25z"/>
<path d="M10640 3765 l0 -895 200 0 200 0 0 895 0 895 -200 0 -200 0 0 -895z"/>
<path d="M11400 3765 l0 -895 525 0 525 0 0 200 0 200 -325 0 -325 0 0 695 0
695 -200 0 -200 0 0 -895z"/>
<path d="M7970 4640 c-372 -50 -668 -326 -744 -693 -21 -98 -20 -276 0 -375
79 -385 406 -666 810 -697 218 -17 467 65 630 208 36 32 42 42 34 57 -14 27
-164 183 -221 231 l-49 40 -59 -36 c-131 -81 -253 -108 -373 -81 -233 52 -407
280 -383 504 22 209 155 369 350 423 79 22 198 17 280 -10 69 -24 143 -64 157
-85 13 -19 61 17 181 136 73 73 117 124 117 137 0 39 -195 161 -320 200 -146
45 -278 59 -410 41z"/>
<path d="M8980 3755 l0 -885 200 0 200 0 0 335 0 335 260 0 260 0 0 -335 0
-335 200 0 200 0 0 885 0 885 -200 0 -200 0 0 -345 0 -345 -260 0 -260 0 0
345 0 345 -200 0 -200 0 0 -885z"/>
<path d="M12770 3755 l0 -885 570 0 570 0 0 200 0 200 -360 0 -360 0 0 145 0
145 293 2 292 3 0 200 0 200 -292 3 -293 2 0 135 0 135 360 0 360 0 0 200 0
200 -570 0 -570 0 0 -885z"/>
</g>
</svg>
